<svg width="41" height="41" viewBox="0 0 41 41" fill="none" xmlns="http://www.w3.org/2000/svg">
<path d="M31.4055 31.3565C31.4595 31.3974 31.4905 31.4219 31.5216 31.4447C31.7814 31.6376 32.0641 31.8043 32.2978 32.0249C32.7898 32.4907 33.3356 32.8747 33.9223 33.2081C34.0155 33.2621 34.1119 33.3209 34.1838 33.3993C34.2377 33.4565 34.3047 33.5677 34.2818 33.62C34.2492 33.6984 34.1511 33.7834 34.0677 33.8014C33.9174 33.8324 33.7556 33.8324 33.6036 33.8144C32.9205 33.736 32.2488 33.6232 31.6686 33.2081C31.3369 32.9728 30.9921 32.7554 30.6521 32.5315C30.2387 32.2602 30.1864 32.2733 29.8023 32.5887C28.2922 33.8308 26.6351 34.8211 24.7933 35.4879C24.3553 35.6464 23.9059 35.7723 23.463 35.9177C23.3845 35.9439 23.3143 35.988 23.2391 36.024C23.2407 36.0436 23.244 36.0632 23.2456 36.0828C23.3339 36.1024 23.4221 36.1318 23.5104 36.1384C23.7866 36.158 24.066 36.1939 24.3406 36.176C24.7361 36.1498 25.1397 36.122 25.5205 36.024C25.9438 35.9145 26.3605 35.7527 26.7544 35.5615C27.029 35.4275 27.3068 35.2461 27.4996 35.014C27.9017 34.5302 28.4165 34.2737 28.9884 34.0743C29.6503 33.8439 30.3253 33.6886 31.0198 33.7817C31.5183 33.8488 32.0069 34.0007 32.4972 34.1233C32.5708 34.1413 32.6378 34.2034 32.6999 34.2557C32.8993 34.4175 32.914 34.5335 32.6933 34.6675C32.3174 34.8931 31.922 35.0843 31.5297 35.282C31.2944 35.4013 31.0378 35.4814 30.8123 35.6154C29.969 36.1204 29.0718 36.0991 28.1533 35.9177C27.9147 35.8703 27.6761 35.7984 27.4343 35.7886C27.2104 35.7805 26.9767 35.8164 26.7626 35.8801C26.506 35.957 26.2658 36.0828 25.9847 36.2021C26.0484 36.225 26.0713 36.2397 26.0942 36.2413C27.4424 36.3149 28.4622 37.0013 29.2793 38.0145C29.6471 38.4705 29.9298 38.9967 30.2468 39.4935C30.4658 39.8367 30.6799 40.1832 30.8875 40.5345C30.93 40.6064 30.9643 40.7519 30.93 40.7813C30.8679 40.8352 30.7404 40.8679 30.6636 40.8418C30.4152 40.7568 30.1717 40.6506 29.9347 40.5362C29.3627 40.26 28.7972 39.9691 28.2236 39.6929C27.7873 39.4837 27.4261 39.1765 27.1009 38.8284C26.5109 38.2008 25.9275 37.5651 25.3587 36.9179C25.1022 36.627 24.8325 36.426 24.4207 36.4489C24.1772 36.4619 23.932 36.4064 23.7196 36.3835C23.9533 36.9653 24.1674 37.5389 24.4141 38.0978C24.5498 38.4067 24.741 38.6927 24.9044 38.9885C24.9943 39.1503 25.1136 39.3562 24.9747 39.4968C24.8292 39.6439 24.6299 39.5017 24.4762 39.4102C23.8716 39.049 23.3682 38.5849 23.0413 37.9459C22.8992 37.668 22.7292 37.4017 22.6083 37.1157C22.4105 36.6434 22.0281 36.4832 21.5721 36.4734C21.1816 36.4652 20.7877 36.5093 20.3971 36.5486C19.3969 36.6466 18.3984 36.6826 17.3917 36.6303C15.8408 36.5486 14.3258 36.2707 12.8501 35.7952C11.322 35.3016 9.88713 34.6071 8.54213 33.7196C6.79019 32.5642 5.28013 31.1522 4.02011 29.4738C2.80095 27.8477 1.87105 26.0713 1.25003 24.1265C0.883949 22.9809 0.617564 21.814 0.508068 20.6243C0.360984 19.0259 0.362618 17.4211 0.602856 15.8228C0.932977 13.6312 1.64552 11.5753 2.73884 9.65996C4.05443 7.35565 5.78675 5.42231 7.94725 3.87629C9.86915 2.50024 11.9774 1.53602 14.2702 1.00325C16.0205 0.596316 17.8019 0.432889 19.5996 0.570167C21.6114 0.723788 23.5594 1.14706 25.4208 1.95276C29.0832 3.538 31.9269 6.05804 33.9599 9.49C35.0843 11.3874 35.8017 13.4449 36.1776 15.625C36.4211 17.0321 36.4358 18.4491 36.359 19.8594C36.2135 22.489 35.47 24.96 34.2067 27.2725C33.584 28.4115 32.847 29.4656 32.0037 30.4478C31.8419 30.6358 31.6605 30.809 31.4889 30.9888C31.4987 31.0035 31.5101 31.0198 31.5199 31.0345C31.7667 30.9071 32.0216 30.7943 32.257 30.6472C33.0545 30.1488 33.669 29.4624 34.1642 28.6698C34.2737 28.4965 34.3505 28.2841 34.3799 28.0814C34.4583 27.5421 34.6888 27.0845 35.0499 26.6907C35.6236 26.0647 36.1939 25.4306 36.9882 25.0695C37.5863 24.7982 38.2155 24.6413 38.8725 24.6233C39.2582 24.6135 39.3693 24.8047 39.1536 25.1185C38.7646 25.684 38.3512 26.2298 37.9475 26.7854C37.9148 26.8296 37.8772 26.8704 37.8511 26.9162C37.3052 27.8608 36.4162 28.3021 35.4209 28.593C35.2134 28.6534 35.0075 28.7221 34.8032 28.7956C34.4698 28.9149 34.1936 29.1045 33.9877 29.4052C33.8439 29.616 33.6576 29.7974 33.4598 30.0278C33.5415 30.0066 33.5856 30.0033 33.6216 29.9853C34.3913 29.5964 35.2085 29.513 36.0534 29.5882C37.2072 29.6928 38.2041 30.1945 39.1618 30.8057C39.5834 31.0754 40.0279 31.3107 40.4561 31.5706C40.5411 31.6229 40.6016 31.716 40.6735 31.7912C40.5836 31.8648 40.5035 31.9726 40.4005 32.0037C40.2404 32.0511 40.0671 32.056 39.8972 32.0625C39.0915 32.0936 38.2842 32.0985 37.4801 32.1507C36.797 32.1949 36.1612 32.0118 35.5321 31.8043C34.7819 31.5559 34.0449 31.2633 33.3029 30.9888C33.2653 30.9741 33.2277 30.9577 33.1902 30.9414C32.8486 30.7861 32.5283 30.7731 32.1932 30.9937C31.9595 31.1473 31.6817 31.2339 31.3974 31.363L31.4055 31.3565ZM24.4501 35.1153C24.4632 35.1349 24.4762 35.1545 24.4877 35.1741C24.6429 35.1153 24.7949 35.0434 24.9551 34.9993C25.1185 34.9535 25.2541 34.911 25.2574 34.6953C25.2574 34.6234 25.3408 34.5433 25.4012 34.4828C26.0615 33.8291 26.8083 33.2931 27.6108 32.8306C28.0863 32.556 28.5488 32.2602 29.0146 31.9693C29.2859 31.7994 29.4428 31.5608 29.4248 31.2241C29.415 31.0411 29.4248 30.8564 29.4215 30.6734C29.4117 29.9788 29.5229 29.3039 29.7533 28.6518C30.0311 27.8657 30.5835 27.2888 31.2535 26.8247C31.5869 26.5926 31.9318 26.3769 32.2864 26.1775C32.373 26.1285 32.5348 26.1448 32.6231 26.1971C32.6819 26.2314 32.7015 26.3916 32.6819 26.4831C32.6394 26.6809 32.561 26.8704 32.4923 27.0616C32.208 27.8461 31.8958 28.6224 31.6458 29.4166C31.4447 30.0556 31.2111 30.6587 30.7044 31.1212C30.6766 31.1473 30.6652 31.1914 30.6456 31.229C30.7191 31.229 30.7616 31.2029 30.7927 31.1669C31.2977 30.5802 31.8272 30.0131 32.3011 29.4019C33.986 27.2332 35.1317 24.8064 35.6497 22.1C35.8115 21.2535 35.9521 20.3955 35.9962 19.5375C36.0567 18.3494 36.0158 17.1612 35.823 15.9764C35.6236 14.7491 35.3376 13.5495 34.8963 12.3941C33.8929 9.77436 32.3665 7.506 30.3024 5.60208C28.593 4.02664 26.6514 2.83853 24.4795 2.02793C23.329 1.59812 22.1458 1.28925 20.9217 1.13236C19.7254 0.978734 18.5357 0.83165 17.3198 0.962392C16.166 1.0866 15.0236 1.23695 13.8993 1.53602C11.2861 2.22895 8.9556 3.46119 6.92093 5.23927C3.90081 7.88188 1.94949 11.1668 1.16177 15.12C0.883949 16.5157 0.709083 17.9277 0.81531 19.3577C0.908464 20.6194 1.05064 21.8761 1.3873 23.1018C2.38584 26.7462 4.32245 29.7909 7.21837 32.203C9.83156 34.3799 12.8419 35.6742 16.2068 36.1237C16.6922 36.189 17.1939 36.2037 17.6826 36.171C18.2072 36.1367 18.7236 35.9913 19.2482 35.9439C19.9362 35.8801 20.6275 35.854 21.3172 35.8344C21.7421 35.8229 22.0003 35.617 22.1948 35.2542C22.3925 34.8849 22.6066 34.5172 22.8567 34.1821C23.4597 33.3765 24.2229 32.8028 25.2558 32.6884C25.6921 32.6394 26.1334 32.61 26.573 32.5985C26.6907 32.5953 26.81 32.6982 26.9276 32.7522C26.8753 32.8502 26.8427 32.9695 26.7658 33.0398C26.4733 33.3111 26.1612 33.5628 25.8637 33.8291C25.3914 34.2541 24.9224 34.6839 24.4534 35.112L24.4501 35.1153ZM35.1513 30.6963C35.1856 30.8205 35.2068 30.9022 35.2363 31.0084C34.9061 30.9675 34.826 30.626 34.5597 30.5247C34.5711 30.5573 34.5793 30.5802 34.5874 30.6031C34.612 30.6799 34.6365 30.7584 34.6626 30.8352C34.5891 30.7943 34.5106 30.76 34.442 30.711C34.3636 30.6538 34.2933 30.5835 34.2197 30.5181C34.2083 30.5328 34.1969 30.5459 34.1838 30.5606C34.259 30.6456 34.339 30.7273 34.4077 30.8172C34.4371 30.858 34.442 30.9169 34.4583 30.9675C34.4044 30.9594 34.3423 30.9626 34.2965 30.9398C34.2067 30.8924 34.12 30.8368 34.0416 30.7731C33.9109 30.6668 33.8014 30.5296 33.602 30.6587C33.5628 30.6848 33.4663 30.6227 33.3961 30.5998C33.3536 30.5868 33.3095 30.5737 33.267 30.559C33.2588 30.577 33.2506 30.5949 33.2424 30.6129C33.2882 30.644 33.3307 30.6848 33.3814 30.7044C33.7752 30.8629 34.1642 31.0362 34.5678 31.1669C35.2297 31.3826 35.8981 31.582 36.5698 31.7634C37.0176 31.8844 37.4768 31.8549 37.941 31.8239C38.5669 31.7814 39.1993 31.8108 39.8285 31.8092C39.9233 31.8092 40.0198 31.8092 40.1145 31.8092C40.072 31.7242 40.0263 31.685 39.9756 31.6523C39.536 31.3712 39.1095 31.0656 38.6519 30.8188C38.1175 30.5312 37.5684 30.2583 36.9996 30.0507C36.2037 29.7598 35.3719 29.8366 34.5482 29.9543C34.3962 29.9755 34.2475 30.0164 34.0972 30.0491C34.5858 30.0622 35.0663 30.0099 35.5419 30.036C36.0191 30.0622 36.5044 30.121 36.962 30.2501C37.4196 30.3792 37.8527 30.6031 38.2891 30.8008C39.0049 31.1261 39.4429 31.4121 39.4543 31.5216C39.2696 31.5526 39.0882 31.5853 38.9052 31.6114C38.8839 31.6147 38.8463 31.5984 38.8349 31.5804C38.7091 31.3745 38.5146 31.2797 38.3316 31.2454C38.3381 31.3549 38.3446 31.4742 38.3528 31.5951C38.3267 31.6049 38.3021 31.6163 38.276 31.6262C38.1877 31.5297 38.0913 31.4398 38.0129 31.3369C37.9312 31.229 37.8723 31.1032 37.789 30.997C37.7514 30.9479 37.6778 30.9283 37.6206 30.894C37.6206 30.9577 37.601 31.0296 37.6239 31.0819C37.6599 31.1669 37.735 31.2372 37.7743 31.3205C37.8151 31.4072 37.8347 31.5036 37.8691 31.618C37.5389 31.6147 37.5487 31.3189 37.3755 31.1898C37.4376 31.3418 37.4915 31.4758 37.5471 31.6114C37.5046 31.6425 37.4621 31.6735 37.418 31.7046C37.3559 31.6082 37.2971 31.5101 37.2333 31.4137C37.0356 31.1146 36.8411 30.8139 36.6385 30.5181C36.5927 30.4527 36.5208 30.4054 36.462 30.3498C36.4456 30.3694 36.4293 30.389 36.4129 30.4103C36.5862 30.6243 36.7578 30.8384 36.9326 31.0509C37.0699 31.2176 37.0895 31.3189 36.9915 31.4693C36.6924 31.1163 36.3949 30.7665 36.0991 30.4184C36.0861 30.4299 36.073 30.4413 36.0599 30.4527C36.1988 30.7159 36.4946 30.8842 36.5077 31.2323C36.3949 31.1816 36.2985 31.1163 36.2201 31.0329C36.0746 30.8809 35.9488 30.7093 35.7968 30.5655C35.7429 30.5132 35.6399 30.5148 35.5582 30.4903C35.5745 30.5737 35.5664 30.6734 35.6105 30.7371C35.7282 30.9103 35.8753 31.064 35.9962 31.2356C36.0403 31.2977 36.0485 31.3875 36.0746 31.4644C36.0534 31.4774 36.0338 31.4905 36.0125 31.5036C35.6514 31.3385 35.5026 30.9316 35.1513 30.6963ZM26.4848 36.5665C27.2921 36.895 28.0438 37.2938 28.6518 37.9295C29.2581 38.5636 30.103 39.8334 30.0638 40.0541C29.9053 39.9756 29.7451 39.9004 29.5915 39.8138C29.5621 39.7975 29.5604 39.7338 29.5408 39.6929C29.4869 39.5769 29.4297 39.4641 29.3643 39.3285C29.3088 39.3873 29.2941 39.4102 29.2712 39.4249C29.2042 39.469 29.1355 39.5082 29.0669 39.5507C29.0424 39.4788 29.0048 39.4085 28.995 39.335C28.977 39.1863 28.9819 39.0359 28.9639 38.8872C28.9574 38.8316 28.9198 38.7793 28.8969 38.7254C28.8757 38.7287 28.8544 38.7303 28.8332 38.7336C28.8103 38.946 28.7858 39.1585 28.7629 39.3693L28.6681 39.3791C28.6305 39.2958 28.593 39.2124 28.5619 39.1438C28.4769 39.1127 28.3086 39.0719 28.3102 39.0523C28.3315 38.8839 28.1697 38.8561 28.1141 38.7565C28.0634 38.6649 28.0324 38.5603 28.0095 38.4574C27.9736 38.2907 27.9491 38.1207 27.9213 37.9524C27.8788 38.2487 27.8259 38.4182 27.7627 38.4607C27.601 38.155 27.6647 37.7645 27.3934 37.449C27.194 37.82 27.5617 38.1485 27.3869 38.4835C27.3444 38.4623 27.2774 38.4525 27.2676 38.4231C27.1597 38.1011 27.06 37.7759 26.9554 37.4425C26.9391 37.5275 26.9227 37.6076 26.9048 37.6975C26.676 37.6501 26.7266 37.4392 26.6547 37.3183C26.6416 37.3118 26.6351 37.3069 26.6286 37.3069C26.6024 37.3085 26.5746 37.3069 26.5485 37.3167C26.2788 37.4049 26.1154 37.2905 26.0206 37.0405C26.0108 37.016 25.9896 36.9964 25.9781 36.9718C25.9079 36.8346 25.8016 36.7774 25.5924 36.8264C26.0272 37.3118 26.4357 37.7792 26.8574 38.2368C27.4196 38.8463 28.0438 39.3709 28.8463 39.6422C28.8904 39.6569 28.928 39.688 28.9705 39.7109C29.4346 39.9626 29.8971 40.2142 30.3629 40.461C30.3972 40.479 30.4462 40.4708 30.492 40.4757C30.2305 40.0083 29.9837 39.5474 29.719 39.0997C29.1372 38.1175 28.4099 37.2807 27.3427 36.8068C27.0698 36.6858 26.7985 36.5404 26.4864 36.5665H26.4848ZM32.44 26.4079C32.3338 26.4553 32.275 26.4717 32.2276 26.5044C31.8337 26.7805 31.4317 27.0469 31.0493 27.3395C30.6505 27.6434 30.3073 28.0128 30.1455 28.4949C29.9723 29.013 29.8513 29.5506 29.7173 30.0818C29.6928 30.1766 29.7141 30.2811 29.7141 30.3841C29.8121 30.389 29.8938 30.3923 29.9968 30.3972C29.9641 30.3433 29.9314 30.3138 29.9347 30.2861C29.9412 30.1994 29.9608 30.1128 29.9755 30.0262C30.0344 30.0867 30.1096 30.139 30.1488 30.2109C30.1782 30.2648 30.1586 30.3433 30.1668 30.4103C30.1733 30.4626 30.1896 30.5148 30.2011 30.5671L30.2648 30.5622C30.2697 30.4805 30.291 30.3955 30.2795 30.3155C30.237 30.0131 30.1798 29.7141 30.139 29.4117C30.1275 29.3251 30.1553 29.2319 30.1651 29.1421L30.2436 29.1388C30.4495 29.4183 30.4429 29.768 30.5247 30.0932C30.5475 30.0376 30.559 29.9788 30.5443 29.9265C30.5018 29.7811 30.5296 29.701 30.6979 29.6683C30.8515 29.6372 30.8548 29.5392 30.7224 29.4248C30.5345 29.2597 30.4609 28.892 30.5917 28.5962C30.6848 28.7695 30.7633 28.9133 30.8401 29.0587C30.7959 28.7744 30.7142 28.5047 30.6587 28.2285C30.6358 28.119 30.505 27.949 30.6865 27.8951C30.845 27.8494 30.8368 28.0471 30.8858 28.1501C30.9643 28.3102 31.0395 28.472 31.1163 28.6338C31.1375 28.6256 31.1588 28.6175 31.1816 28.6093C31.1653 28.4001 31.1408 28.1909 31.1359 27.9817C31.1342 27.9115 31.1571 27.8167 31.2045 27.7725C31.2813 27.7006 31.3189 27.6516 31.2535 27.5519C31.2339 27.5225 31.2503 27.4392 31.2797 27.4163C31.3075 27.3934 31.3761 27.4032 31.4202 27.4195C31.4611 27.4343 31.4905 27.4767 31.551 27.529C31.5935 27.4343 31.6114 27.3444 31.6654 27.2855C31.7373 27.2071 31.837 27.1548 31.9252 27.0927C31.922 27.1842 31.9269 27.2757 31.9154 27.3656C31.9089 27.4163 31.8697 27.4637 31.8484 27.5127C31.667 27.9572 31.448 28.3903 31.3124 28.8495C31.1032 29.5555 30.8793 30.2485 30.4887 30.8793C30.4707 30.9087 30.4658 30.9479 30.4429 31.0182C30.505 30.9855 30.541 30.9773 30.559 30.9561C30.9022 30.5459 31.1637 30.0948 31.3205 29.5768C31.5134 28.9443 31.7226 28.3151 31.9399 27.6908C32.0854 27.2774 32.2586 26.8737 32.4417 26.4096L32.44 26.4079ZM34.826 28.2285C34.8604 28.2399 34.8931 28.2498 34.9274 28.2612C35.0042 28.0357 35.0728 27.8069 35.1594 27.5846C35.1889 27.5094 35.2559 27.3999 35.3147 27.395C35.4667 27.3803 35.5092 27.2904 35.5353 27.1728C35.5664 27.0339 35.5827 26.8917 35.6187 26.7528C35.653 26.6237 35.72 26.5289 35.9324 26.6351C35.8344 27.0126 35.7347 27.3967 35.635 27.7807C35.6987 27.7431 35.751 27.6957 35.7641 27.6385C35.8131 27.4261 35.89 27.2447 36.1008 27.1352C36.1596 27.1058 36.1939 27.0028 36.2119 26.9276C36.274 26.6645 36.3263 26.3965 36.3786 26.1317C36.3998 26.0222 36.4276 25.965 36.5665 26.0075C36.7071 26.05 36.8624 26.0468 37.0307 26.0664C37.0307 25.9373 37.0372 25.849 37.029 25.7624C37.016 25.6349 37.0846 25.5892 37.1925 25.581C37.3297 25.5712 37.3232 25.6791 37.3199 25.764C37.3134 25.8948 37.2889 26.0239 37.2709 26.1546C37.5684 26.0958 37.6272 25.8637 37.6599 25.6022C37.6746 25.4927 37.7301 25.3882 37.7677 25.2819C37.8413 25.362 37.9148 25.4404 37.99 25.5222C38.1273 25.411 38.2874 25.2819 38.4754 25.1299C38.4999 25.3489 37.8364 26.2984 37.2987 26.8198C36.8051 27.297 36.2773 27.7366 35.7707 28.1893C35.7886 28.186 35.8311 28.1893 35.8638 28.1746C36.4848 27.8869 37.0617 27.5438 37.4638 26.962C37.7154 26.5991 37.9933 26.2559 38.2564 25.9029C38.4901 25.5908 38.7221 25.2754 38.9558 24.9616C38.9395 24.9371 38.9232 24.9126 38.9052 24.8881C38.1256 24.9681 37.3706 25.1446 36.694 25.5712C36.0567 25.9732 34.6806 27.3329 34.7443 27.869C34.838 27.675 34.9443 27.5792 35.063 27.5813C34.9829 27.7987 34.9029 28.0161 34.8228 28.2318L34.826 28.2285ZM28.5913 34.9911C28.879 34.8342 28.9525 34.4289 29.3888 34.4273C29.1323 34.8146 28.8724 35.1333 28.5505 35.4078C28.709 35.3376 28.8414 35.2313 28.9819 35.1382C29.0555 35.0892 29.1551 35.0222 29.2238 35.0385C29.3545 35.0712 29.4068 35.0156 29.4755 34.929C29.6373 34.728 29.8039 34.5319 29.9772 34.3423C30.0082 34.308 30.0801 34.3129 30.1324 34.2998C30.1292 34.3603 30.1422 34.4306 30.1161 34.4779C30.0622 34.576 29.987 34.6626 29.92 34.7558C29.9347 34.7656 29.9494 34.7754 29.9625 34.7852C30.0311 34.7035 30.0948 34.6152 30.1717 34.5417C30.2109 34.5041 30.273 34.4894 30.3253 34.4632C30.3204 34.5237 30.3335 34.594 30.3089 34.6446C30.2697 34.7231 30.2043 34.7901 30.1504 34.8604C30.1668 34.8734 30.1831 34.8881 30.1994 34.9012C30.2779 34.8081 30.358 34.7165 30.4315 34.6201C30.5181 34.5074 30.5933 34.3848 30.6897 34.2802C30.7191 34.2475 30.7976 34.2573 30.8515 34.2475C30.8548 34.2998 30.8793 34.3635 30.8597 34.4044C30.7943 34.5351 30.7126 34.6561 30.6325 34.7868C30.943 34.7541 31.0084 34.71 31.2127 34.4273C31.2748 34.3407 31.3173 34.205 31.484 34.2671C31.4889 34.3488 31.4954 34.4338 31.5003 34.5286C31.5444 34.5237 31.5771 34.5237 31.6082 34.5139C31.6915 34.4878 31.7749 34.4306 31.855 34.4338C31.922 34.4371 31.9857 34.5074 32.0511 34.5482C32.0037 34.594 31.9628 34.6561 31.9056 34.6822C31.7961 34.7329 31.6703 34.7509 31.5624 34.8032C30.6717 35.2297 29.7451 35.5386 28.7597 35.6481C28.7335 35.6514 28.709 35.6775 28.6354 35.72C29.2941 35.751 29.8889 35.7592 30.4528 35.483C31.0901 35.1709 31.7389 34.8783 32.3796 34.5744C32.422 34.5531 32.4809 34.5074 32.4825 34.4714C32.4825 34.4355 32.4269 34.3734 32.3861 34.3652C31.8533 34.2426 31.3254 34.0792 30.7861 34.0204C30.1112 33.9452 29.4853 34.2344 28.8512 34.4207C28.6093 34.4927 28.3772 34.6038 28.1256 34.7035C28.24 34.8816 28.1844 34.9895 28.0667 35.0892C27.9638 35.1758 27.8722 35.2755 27.7758 35.3703L27.8445 35.4438C28.0716 35.2232 28.2988 35.0025 28.5439 34.7639C28.5652 34.8604 28.5766 34.9127 28.5913 34.9813V34.9911ZM23.1623 35.6105C23.2293 35.6105 23.2603 35.6203 23.28 35.6105C23.579 35.4307 23.9059 35.282 24.169 35.0565C24.7867 34.527 25.3734 33.9615 25.9732 33.4124C26.1791 33.2228 26.3867 33.0349 26.5926 32.8453C26.524 32.8045 26.4847 32.8012 26.4472 32.8061C26.1007 32.8568 25.7542 32.927 25.4061 32.9581C24.7704 33.0153 24.2017 33.231 23.7245 33.6494C23.1525 34.1511 22.721 34.7688 22.368 35.4422C22.3451 35.4863 22.3386 35.5402 22.3239 35.5892C22.3386 35.6007 22.355 35.6105 22.3697 35.6219C22.6197 35.2967 22.7308 34.8424 23.2326 34.6741C23.159 34.8783 23.1002 35.0401 23.0397 35.2036C23.1476 35.0957 23.2277 34.9731 23.28 34.8408C23.36 34.6397 23.4156 34.4289 23.4957 34.2279C23.5186 34.1707 23.5888 34.1315 23.6362 34.0841C23.6575 34.0972 23.6787 34.1102 23.7016 34.1233C23.6754 34.3145 23.6493 34.5057 23.628 34.6577C23.7424 34.6724 23.8552 34.6871 24.017 34.7067C23.7996 34.4436 23.9827 34.2165 24.0186 33.9811C24.0268 33.9288 24.0889 33.8749 24.1396 33.8422C24.1625 33.8275 24.2507 33.8635 24.2523 33.8831C24.2589 33.9435 24.2458 34.0089 24.2278 34.0677C24.2131 34.12 24.1821 34.1658 24.1592 34.2148C24.1804 34.2246 24.2017 34.2328 24.2229 34.2426C24.254 34.1674 24.2932 34.0939 24.3128 34.0154C24.3618 33.8259 24.3913 33.6298 24.4485 33.4418C24.4713 33.3683 24.5465 33.3111 24.5972 33.2457C24.6266 33.2588 24.6544 33.2702 24.6838 33.2833C24.6462 33.5219 24.6086 33.7621 24.571 34.0007C24.5939 34.0269 24.6151 34.0514 24.638 34.0776C24.6789 33.9975 24.7116 33.9141 24.7606 33.8406C24.8815 33.6543 25.0057 33.4712 25.1332 33.2915C25.2901 33.0708 25.3179 33.0725 25.4682 33.3242C25.5385 33.2735 25.6022 33.2081 25.6791 33.1803C25.751 33.1558 25.8376 33.1722 25.9193 33.1705C25.885 33.2359 25.8654 33.3209 25.8114 33.3634C25.6022 33.535 25.3702 33.6804 25.1692 33.8618C24.7966 34.1969 24.4485 34.5613 24.0726 34.8947C23.7964 35.1398 23.4924 35.3539 23.1623 35.6105ZM29.1519 32.592C29.093 32.5773 29.0571 32.556 29.0326 32.5642C28.7515 32.6557 28.4557 32.7162 28.1958 32.8519C27.3035 33.316 26.4864 33.8978 25.7166 34.545C25.6676 34.5858 25.6317 34.643 25.5549 34.7313C26.104 34.558 28.454 33.1526 29.1519 32.592ZM30.9005 32.3125C31.0395 32.507 31.2241 32.5691 31.4137 32.4988C31.5951 32.4318 31.7732 32.3599 31.9579 32.306C31.9955 32.2946 32.0527 32.3534 32.1001 32.3795C32.0723 32.4204 32.0543 32.476 32.0167 32.4972C31.8795 32.5724 31.7357 32.6361 31.5951 32.7048C31.783 32.7325 31.9563 32.775 31.9497 33.0365C32.2439 32.9662 32.5038 32.9025 32.8061 32.8306C32.6231 32.6852 32.4956 32.5855 32.3697 32.4841C32.0625 32.2325 31.77 31.9595 31.4448 31.7356C31.1048 31.5003 31.0525 31.5232 30.7404 31.7732C30.7093 31.7994 30.6668 31.8157 30.6456 31.8484C30.6047 31.9089 30.5753 31.9759 30.5426 32.0396C30.6211 32.0494 30.7077 32.0837 30.778 32.0625C30.9381 32.0135 31.0885 31.9301 31.2486 31.8795C31.3107 31.8598 31.3876 31.8925 31.4595 31.9023C31.4268 31.9628 31.4104 32.0494 31.3614 32.0805C31.216 32.1704 31.0574 32.2374 30.9005 32.3142V32.3125ZM23.4417 37.1778C23.1868 37.3216 23.0757 37.0323 22.873 36.9604C22.909 37.0634 22.9564 37.163 23.0332 37.1957C23.1852 37.2611 23.3551 37.284 23.5169 37.333C23.6215 37.3641 23.7212 37.4098 23.8519 37.4605C23.6281 37.6958 23.4368 37.5798 23.244 37.516C23.3077 37.668 23.3633 37.802 23.4238 37.9328C23.4368 37.9606 23.4679 37.9884 23.4973 37.9965C23.7 38.0586 23.9042 38.1158 24.0987 38.1714C23.9892 37.838 23.8814 37.4997 23.7653 37.163C23.6231 36.7479 23.3519 36.4325 22.9858 36.2037C22.9204 36.1629 22.7652 36.158 22.7292 36.2021C22.6704 36.274 22.654 36.3998 22.6638 36.4979C22.6704 36.5567 22.7521 36.6401 22.8142 36.6564C22.9825 36.7006 23.159 36.7104 23.3306 36.7447C23.3715 36.7528 23.4336 36.7937 23.4368 36.8264C23.4499 36.9375 23.4417 37.0519 23.4417 37.1778ZM33.0251 33.1836C33.2817 33.468 33.6102 33.602 33.8324 33.4859C33.651 33.3699 33.4827 33.2653 33.316 33.1542C33.0104 32.9532 32.7489 32.9859 32.4531 33.2817C32.6541 33.2473 32.829 33.2163 33.0251 33.182V33.1836ZM24.5955 39.1928L24.6429 39.1487C24.607 38.7319 24.1576 38.3283 23.6444 38.2956C23.7081 38.3593 23.7408 38.4231 23.78 38.428C24.0905 38.459 24.2049 38.7042 24.3504 38.9248C24.4158 39.0245 24.5138 39.1046 24.5955 39.1928ZM36.9669 26.3524C36.8002 26.6155 36.6123 26.9129 36.408 27.2332C36.6973 27.1907 36.9882 26.6612 36.9669 26.3524ZM30.3482 31.6507C30.1602 31.5265 29.719 31.752 29.6667 31.971C29.8987 31.8615 30.1096 31.7634 30.3482 31.6507ZM29.701 31.2241C29.7337 31.2241 29.7647 31.2241 29.7974 31.2225C29.7827 30.9921 29.7696 30.7616 29.7549 30.5328C29.7369 30.5328 29.719 30.5345 29.701 30.5361V31.2258V31.2241ZM29.5327 35.2787C29.8317 35.2624 29.938 35.1594 29.8383 34.9993C29.7386 35.0859 29.5392 35.0548 29.5327 35.2787Z" fill="white"/>
<path d="M18.1499 15.615C18.5372 15.615 18.9016 15.6167 19.2661 15.615C20.6094 15.6085 21.9512 15.6036 23.2945 15.5905C23.9515 15.584 24.5578 15.7114 25.0693 16.1609C25.424 16.473 25.71 16.8358 25.7263 17.3163C25.7525 18.1302 25.7966 18.9522 25.7067 19.7562C25.6135 20.5881 25.0203 21.0996 24.2784 21.4265C24.1656 21.4771 24.0316 21.4788 23.8763 21.5082C23.9204 21.5556 23.9482 21.5964 23.9875 21.6226C24.5202 21.9838 24.8716 22.4871 25.0661 23.0902C25.2932 23.7945 25.4844 24.5087 25.692 25.2196C25.8195 25.656 25.9518 26.0923 26.0777 26.5287C26.1104 26.6447 26.1251 26.7656 26.1529 26.9111C25.9502 26.9111 25.7737 26.9274 25.6021 26.9029C25.5367 26.8931 25.4534 26.7967 25.4321 26.7231C25.2655 26.1707 25.1151 25.6135 24.9517 25.0594C24.7817 24.4793 24.6101 23.9008 24.4254 23.3255C24.2947 22.9169 24.0577 22.5705 23.7538 22.2681C23.3991 21.9167 22.9726 21.7337 22.4758 21.7321C21.3628 21.7288 20.2515 21.7304 19.1386 21.7321C19.0373 21.7321 18.9376 21.7484 18.8134 21.7599V26.8964H18.1711V20.9918C18.0927 21.098 18.0387 21.1699 17.9848 21.2434C17.434 22.0034 16.6839 22.4463 15.7622 22.5182C14.811 22.5917 13.8485 22.6489 12.9022 22.4789C11.6945 22.2599 10.9313 21.4853 10.5129 20.3544C10.2907 19.7563 10.2188 19.1336 10.2302 18.4913C10.2498 17.3212 10.2433 16.1494 10.222 14.9793C10.2089 14.2308 10.3135 13.5052 10.6371 12.8368C11.196 11.6813 12.1063 11.008 13.4219 10.9802C14.1737 10.9639 14.9271 10.9639 15.6805 10.9753C17.1317 10.9982 18.3983 12.1634 18.565 13.613C18.5829 13.7748 18.614 13.935 18.6369 14.0968C18.6581 14.2439 18.614 14.3354 18.4457 14.3321C17.8475 14.319 17.9668 14.4269 17.9145 13.8745C17.8018 12.688 16.8915 11.6192 15.5236 11.5964C14.8993 11.5865 14.275 11.5931 13.6523 11.5898C12.4348 11.5816 11.67 12.237 11.1928 13.2976C10.9215 13.9007 10.8904 14.5527 10.8888 15.1983C10.8839 16.4371 10.8888 17.6758 10.9215 18.9146C10.9427 19.7595 11.2042 20.5325 11.7926 21.165C12.2469 21.6536 12.8254 21.8955 13.4775 21.9151C14.2015 21.938 14.9303 21.9445 15.6511 21.8873C17.0026 21.7795 17.756 20.6649 17.908 19.7089C17.9439 19.4882 17.9619 19.2643 17.9881 19.0404C17.993 19.0012 17.9962 18.9326 18.0142 18.9277C18.2234 18.8721 18.1515 18.7021 18.1531 18.5747C18.158 17.6562 18.1564 16.7361 18.1564 15.8177C18.1564 15.7441 18.1564 15.6722 18.1564 15.6183L18.1499 15.615ZM18.8183 16.187C18.8085 16.2769 18.8019 16.3096 18.8019 16.3423C18.8019 17.2264 18.8019 18.1105 18.8019 18.9947C18.8019 19.6141 18.8134 20.2318 18.8068 20.8512C18.8052 21.1111 18.7905 21.1127 19.052 21.1127C20.2515 21.1127 21.4511 21.1192 22.6506 21.1111C22.953 21.1094 23.2602 21.0784 23.5576 21.0228C24.3552 20.8741 24.9893 20.2858 25.0873 19.5095C25.1625 18.9146 25.1641 18.3001 25.1184 17.7003C25.0693 17.0581 24.7163 16.576 24.0904 16.3586C23.8453 16.2736 23.5773 16.2262 23.3174 16.2197C22.2944 16.1968 21.2713 16.1952 20.2483 16.1886C19.7759 16.1854 19.302 16.1886 18.815 16.1886L18.8183 16.187Z" fill="white"/>
<path d="M26.5957 12.2941C26.5156 12.4951 26.4257 12.6503 26.3946 12.817C26.3489 13.0704 26.5695 13.309 26.831 13.322C26.983 13.3302 27.135 13.322 27.3066 13.322C27.1905 13.59 26.8424 13.6669 26.4584 13.5525C26.0335 13.4266 25.906 13.1472 26.004 12.5033C25.9272 12.5458 25.87 12.5931 25.8063 12.6062C25.6249 12.6422 25.4337 12.7108 25.2621 12.6814C24.8012 12.603 24.5839 12.2156 24.7015 11.758C24.8699 11.1043 25.3585 10.7742 25.924 10.9376C26.192 11.0144 26.3538 11.2155 26.4502 11.4639C26.4731 11.5243 26.4322 11.6534 26.3799 11.6878C26.3048 11.7368 26.1887 11.7531 26.0988 11.7368C26.0563 11.7286 26.0188 11.6126 26.0057 11.5423C25.9812 11.4116 26.0662 11.2481 25.8749 11.1762C25.6984 11.1092 25.5023 11.1517 25.3667 11.3266C25.2719 11.4475 25.1853 11.5848 25.1363 11.7286C25.0022 12.1257 25.2915 12.4461 25.7066 12.4019C25.9616 12.3742 26.1528 12.2728 26.3391 12.0914C26.8065 11.6371 27.4438 11.7335 27.6906 12.2696C27.787 12.4787 27.7674 12.6798 27.6563 12.8742C27.5599 13.0442 27.4847 13.0589 27.336 12.9347C27.1546 12.7827 26.9797 12.6226 26.7999 12.4657C26.7493 12.4215 26.697 12.3807 26.5957 12.2957V12.2941ZM27.2608 12.5735C27.2886 12.567 27.3164 12.5621 27.3441 12.5556C27.3441 12.464 27.3817 12.3398 27.336 12.2875C27.251 12.1878 27.1219 12.1225 27.0026 12.0604C26.9715 12.044 26.8849 12.0734 26.8686 12.1061C26.8522 12.1388 26.8751 12.2156 26.9062 12.2467C27.0189 12.3611 27.1415 12.4657 27.2608 12.5752V12.5735Z" fill="white"/>
<path d="M23.1718 10.2806C23.2862 10.2691 23.3826 10.2806 23.4562 10.2479C23.6506 10.1564 23.7912 10.1596 23.8288 10.4015C23.9628 10.3803 24.0837 10.3427 24.2014 10.3476C24.5381 10.3607 24.7195 10.5453 24.6917 10.8836C24.6688 11.1663 24.6051 11.4474 24.5348 11.722C24.4907 11.892 24.4792 12.0358 24.6083 12.1698C24.6279 12.1894 24.6247 12.2319 24.6443 12.3185C24.3517 12.2629 24.0903 12.2139 23.8043 12.16C23.837 12.0881 23.8451 12.0423 23.8713 12.0194C24.239 11.7073 24.1949 11.2481 24.2864 10.8395C24.3191 10.6891 24.105 10.5535 23.9595 10.6352C23.8615 10.6891 23.7569 10.7872 23.7242 10.8885C23.6474 11.1255 23.6016 11.3755 23.5673 11.6239C23.5542 11.7138 23.6065 11.8135 23.6343 11.9067C23.6539 11.9737 23.6817 12.0374 23.6948 12.0734C23.1522 12.0374 22.6194 12.0015 22.0376 11.9622C22.0867 11.8952 22.1226 11.8037 22.1896 11.7612C22.304 11.6909 22.34 11.6125 22.3318 11.4785C22.3187 11.2611 22.3187 11.0421 22.3383 10.8264C22.3547 10.6483 22.3056 10.5404 22.1291 10.4947C22.0817 10.4816 22.0442 10.4391 21.9788 10.395C22.1961 10.2005 22.4576 10.2168 22.7093 10.127C22.7093 10.627 22.7093 11.101 22.7093 11.5749C22.7093 11.7416 22.7927 11.8135 22.9495 11.7661C23.01 11.7481 23.0885 11.686 23.1032 11.6288C23.1832 11.32 23.2535 11.0095 23.3091 10.6957C23.3222 10.6189 23.2715 10.5273 23.2437 10.4456C23.2257 10.3933 23.1996 10.3427 23.1718 10.2806Z" fill="white"/>
<path d="M20.4232 12.3743C20.3252 12.1193 20.2304 11.8807 20.1438 11.6405C20.1323 11.6062 20.1536 11.5244 20.1683 11.5228C20.2222 11.5163 20.2941 11.513 20.3317 11.5441C20.4036 11.6029 20.4543 11.6879 20.518 11.7581C20.7011 11.9592 20.9364 12.0229 21.1848 11.9428C21.3041 11.9052 21.4626 11.7908 21.4822 11.6879C21.5051 11.5718 21.4201 11.397 21.327 11.3055C21.2224 11.2025 21.0573 11.16 20.9151 11.0995C20.6864 11.0015 20.4363 10.9377 20.2271 10.8086C19.8284 10.5602 19.8365 9.97189 20.2206 9.70551C20.4281 9.56169 20.6471 9.47671 20.9086 9.52574C20.9674 9.53718 21.0394 9.49142 21.1015 9.462C21.1603 9.43422 21.211 9.39173 21.2894 9.34106C21.3973 9.66465 21.4969 9.96372 21.5966 10.2628L21.5166 10.3167C21.425 10.2366 21.3401 10.1484 21.2404 10.0798C21.0818 9.97189 20.925 9.84932 20.7485 9.78722C20.5883 9.73165 20.4461 9.84115 20.3677 9.9915C20.2925 10.1353 20.3775 10.2546 20.4821 10.3265C20.6242 10.4246 20.7844 10.4998 20.9446 10.5668C21.1374 10.6485 21.3466 10.6926 21.5329 10.7841C21.8434 10.9394 22.0199 11.2826 21.9562 11.549C21.8647 11.9216 21.5182 12.2076 21.157 12.2092C21.0361 12.2092 20.9102 12.1994 20.7926 12.2239C20.6765 12.2484 20.567 12.3122 20.4216 12.3743H20.4232Z" fill="white"/>
<path d="M27.9867 15.8342C28.2073 16.3195 28.5227 16.6921 29.0865 16.8131C29.0604 16.7461 29.0457 16.6921 29.0212 16.6431C28.7401 16.0907 28.9542 15.6135 29.5572 15.4926C29.9249 15.4191 30.2714 15.4812 30.5361 15.79C30.7633 16.0564 30.7927 16.4192 30.6031 16.7134C30.4413 16.9634 30.2158 17.1203 29.9282 17.2004C29.0375 17.4455 28.1387 16.9749 27.8527 16.0973C27.8298 16.0286 27.8739 15.9387 27.8853 15.8587C27.9197 15.8505 27.9524 15.8423 27.9867 15.8342ZM29.5932 16.7804C29.8693 16.7265 30.2011 16.6856 30.4381 16.4094C30.5345 16.2967 30.5394 16.2035 30.4381 16.0907C30.1651 15.7851 29.4167 15.8897 29.2434 16.2623C29.1437 16.4781 29.3202 16.7837 29.5948 16.7804H29.5932Z" fill="white"/>
<path d="M29.8921 17.6044C30.0098 17.5782 30.067 17.5504 30.1209 17.5553C30.456 17.5831 30.8318 18.0865 30.7894 18.4411C30.7338 18.9004 30.3465 19.2386 29.9379 19.139C29.7238 19.0867 29.4999 18.9788 29.3349 18.8317C29.0832 18.6095 28.8773 18.3333 28.655 18.0767C28.6207 18.0375 28.6043 17.9819 28.5798 17.9345C28.5569 17.9492 28.5341 17.9639 28.5112 17.9786C28.4867 18.245 28.4524 18.5114 28.4425 18.7778C28.4409 18.835 28.5292 18.8905 28.5618 18.9543C28.5945 19.0147 28.6092 19.0834 28.6321 19.1488C28.5668 19.1471 28.4899 19.1651 28.436 19.139C27.9833 18.9134 27.9931 18.9134 28.0765 18.4035C28.1222 18.1224 28.1337 17.8348 28.1631 17.5521C28.1713 17.4671 28.186 17.3821 28.2072 17.2334C28.3608 17.4017 28.4785 17.5276 28.5929 17.6567C28.8168 17.9034 29.0178 18.1747 29.2695 18.3888C29.4362 18.5294 29.6633 18.6225 29.8791 18.6748C30.0997 18.7271 30.3171 18.5653 30.3939 18.3627C30.4756 18.1437 30.3563 17.9999 30.2043 17.8708C30.1177 17.7972 30.0311 17.7253 29.8954 17.6093L29.8921 17.6044Z" fill="white"/>
<path d="M29.6192 20.9395C29.7565 20.6339 29.8839 20.361 29.9967 20.0816C30.0114 20.044 29.9575 19.977 29.933 19.923C29.897 19.8446 29.8611 19.7661 29.8529 19.6697C30.0997 19.7237 30.2206 19.9165 30.3677 20.0734C30.3922 20.0979 30.3726 20.1796 30.3546 20.227C30.2059 20.5914 30.0588 20.9559 29.9003 21.3154C29.8137 21.5115 29.7744 21.5083 29.611 21.3645C29.021 20.8529 28.4294 20.3463 27.8395 19.8364C27.7431 19.7531 27.6303 19.6714 27.7349 19.5145C27.815 19.3935 27.8934 19.3886 27.998 19.4834C28.4965 19.9345 28.9965 20.3806 29.4966 20.8301C29.526 20.8562 29.5555 20.8823 29.6208 20.9395H29.6192Z" fill="white"/>
<path d="M29.3284 13.6426C29.6994 13.7292 29.8628 14.0087 30.1537 14.1835C30.0361 14.2587 29.9592 14.3208 29.8726 14.3633C29.263 14.6575 28.6502 14.9435 28.0455 15.2442C27.9899 15.2719 27.9605 15.3749 27.9426 15.4484C27.9295 15.5073 27.954 15.5743 27.9262 15.6527C27.5601 15.4223 27.5373 14.9941 27.3232 14.6803C27.3428 14.6591 27.364 14.6378 27.3836 14.6166C27.4523 14.664 27.5291 14.7032 27.5896 14.7621C27.6892 14.8585 27.7791 14.8781 27.9131 14.8111C28.3805 14.5806 28.8528 14.3649 29.3268 14.1476C29.4673 14.0838 29.5131 14.0005 29.4281 13.8616C29.3971 13.8109 29.3791 13.7537 29.33 13.6442L29.3284 13.6426Z" fill="white"/>
<path d="M22.5311 9.91541C22.3582 9.90562 22.2571 9.842 22.2603 9.68049C22.2636 9.52061 22.3647 9.45209 22.5116 9.44883C22.6649 9.44556 22.7497 9.5255 22.753 9.68375C22.7579 9.85505 22.6453 9.89909 22.5311 9.91541Z" fill="white"/>
<path d="M31.118 32.3106C31.2876 32.2225 31.4018 32.154 31.5242 32.1099C31.5487 32.1018 31.6074 32.1882 31.6514 32.2323C31.5454 32.3122 31.4442 32.4019 31.3284 32.4639C31.3039 32.477 31.2273 32.3921 31.1196 32.3106H31.118Z" fill="white"/>
</svg>
