<svg width="22" height="20" viewBox="0 0 22 20" fill="none" xmlns="http://www.w3.org/2000/svg">
<path d="M21.9914 1.95021C21.9915 1.77357 21.9448 1.60007 21.8561 1.44735C21.7673 1.29464 21.6397 1.16817 21.4862 1.08084C21.3326 0.993502 21.1587 0.948416 20.9821 0.95017C20.8054 0.951925 20.6324 1.00046 20.4807 1.09083C19.8954 1.43921 19.2652 1.70601 18.6077 1.88383C17.6686 1.07806 16.471 0.637129 15.2337 0.641636C13.8762 0.643198 12.5726 1.17223 11.5979 2.11702C10.6232 3.06181 10.0539 4.3484 10.01 5.70512C7.33402 5.27838 4.90868 3.88164 3.19649 1.78126C3.09333 1.65609 2.96158 1.55757 2.81235 1.494C2.66313 1.43043 2.5008 1.40368 2.33907 1.41601C2.17743 1.42932 2.02147 1.4818 1.88467 1.56892C1.74786 1.65603 1.63434 1.77516 1.55391 1.91601C1.14144 2.63582 0.904544 3.44276 0.862463 4.27131C0.820381 5.09986 0.974301 5.92666 1.31172 6.68456L1.30977 6.68651C1.15812 6.77991 1.03296 6.91066 0.946278 7.06625C0.859591 7.22185 0.814272 7.39708 0.814653 7.57519C0.812817 7.72211 0.82163 7.86898 0.841023 8.01464C0.94316 9.2729 1.50081 10.4507 2.40938 11.3271C2.34775 11.4446 2.31013 11.5731 2.29873 11.7052C2.28732 11.8373 2.30237 11.9704 2.34297 12.0967C2.73909 13.3308 3.58147 14.3727 4.70528 15.0185C3.56352 15.46 2.3307 15.614 1.11543 15.4668C0.890505 15.4386 0.662663 15.4876 0.469281 15.6059C0.275899 15.7242 0.12846 15.9047 0.0511482 16.1178C-0.0261634 16.3309 -0.0287565 16.5639 0.0437941 16.7787C0.116345 16.9935 0.259731 17.1772 0.450433 17.2998C2.54053 18.646 4.97411 19.3617 7.4602 19.3613C10.2795 19.393 13.0302 18.4921 15.2844 16.7988C17.5387 15.1054 19.1702 12.7145 19.925 9.99801C20.2781 8.81464 20.4583 7.58648 20.4602 6.35157C20.4602 6.28614 20.4602 6.21876 20.4592 6.15138C20.9813 5.58831 21.3858 4.92668 21.6489 4.20527C21.912 3.48387 22.0284 2.7172 21.9914 1.95021ZM18.6848 5.16212C18.5196 5.35746 18.436 5.60891 18.4514 5.86427C18.4611 6.02927 18.4602 6.19527 18.4602 6.35157C18.4581 7.39511 18.3052 8.43287 18.0061 9.43263C17.3896 11.744 16.0152 13.7817 14.1031 15.2192C12.1911 16.6568 9.85188 17.4111 7.4602 17.3613C6.60108 17.3616 5.74492 17.2606 4.90942 17.0606C5.97483 16.7172 6.97101 16.1879 7.8518 15.4971C8.01403 15.3693 8.13275 15.1945 8.19169 14.9967C8.25063 14.7988 8.24688 14.5875 8.18098 14.3918C8.11507 14.1961 7.99023 14.0257 7.82358 13.9038C7.65694 13.7819 7.45665 13.7145 7.2502 13.7109C6.41903 13.698 5.62533 13.363 5.03633 12.7764C5.18575 12.7481 5.33419 12.7129 5.48165 12.6709C5.69766 12.6094 5.8867 12.477 6.01831 12.295C6.14993 12.1131 6.21647 11.8921 6.20723 11.6677C6.19798 11.4433 6.11348 11.2285 5.96734 11.058C5.82119 10.8874 5.62191 10.7711 5.40157 10.7275C4.91911 10.6323 4.46512 10.427 4.07489 10.1277C3.68466 9.82845 3.3687 9.44321 3.15157 9.00196C3.3323 9.02662 3.51418 9.04194 3.69649 9.04786C3.91308 9.05113 4.12509 8.98543 4.30187 8.86026C4.47865 8.73509 4.61104 8.55694 4.67989 8.35157C4.74587 8.14433 4.74248 7.92123 4.67022 7.7161C4.59797 7.51096 4.46079 7.33499 4.2795 7.21485C3.83965 6.92182 3.47935 6.52427 3.23086 6.0578C2.98237 5.59134 2.85346 5.07052 2.85567 4.54201C2.85567 4.47561 2.85762 4.4092 2.86153 4.34377C5.10279 6.43402 8.00985 7.66621 11.0705 7.82326C11.225 7.82934 11.3789 7.80024 11.5205 7.73816C11.6621 7.67607 11.7877 7.58262 11.8879 7.46486C11.9871 7.34596 12.0573 7.20566 12.0931 7.05501C12.1288 6.90437 12.1291 6.74748 12.0939 6.5967C12.0367 6.35806 12.0076 6.11357 12.007 5.86818C12.0079 5.01271 12.3482 4.19254 12.9531 3.58764C13.558 2.98274 14.3781 2.64251 15.2336 2.64161C15.6737 2.64043 16.1093 2.7305 16.5129 2.90615C16.9165 3.0818 17.2792 3.3392 17.5783 3.66212C17.6937 3.7862 17.8388 3.87871 18 3.93085C18.1612 3.98299 18.333 3.99303 18.4992 3.96001C18.91 3.88006 19.3149 3.7724 19.7111 3.63775C19.4409 4.19072 19.0955 4.70369 18.6848 5.16212Z" fill="#F5EFDB"/>
</svg>
